<?xml version="1.0" encoding="UTF-8" standalone="no"?>
<svg width="798px" height="754px" viewBox="0 0 798 754" version="1.1" xmlns="http://www.w3.org/2000/svg" xmlns:xlink="http://www.w3.org/1999/xlink">
    <!-- Generator: Sketch 39 (31667) - http://www.bohemiancoding.com/sketch -->
    <title>Artboard</title>
    <desc>Created with Sketch.</desc>
    <defs></defs>
    <g id="Page-1" stroke="none" stroke-width="1" fill="none" fill-rule="evenodd">
        <g id="Artboard">
            <path d="M225,192.431471 C228.716211,284.69166 304.685363,358.346696 397.85757,358.346696 C491.029777,358.346696 566.998929,284.69166 570.71514,192.431471 L484.35757,220.487291 L484.35757,120 L397.861025,206.491167 L311.35757,120 L311.35757,220.487291 L225,192.431471 Z M311.35757,309.891599 L311.35757,242.591816 L251.421055,222.898389 C260.401623,258.625156 282.070398,289.312829 311.35757,309.891599 Z M484.35757,310.588278 L484.35757,242.591816 L545.383604,222.540404 C536.357161,258.825957 514.249657,289.940742 484.35757,310.588278 Z M398.35757,337.346696 C374.699245,337.346696 352.307505,331.923802 332.357562,322.253226 L332.36689,171.702711 L397.85757,237.184089 L463.35757,171.679826 L463.35757,322.733438 C443.660538,332.103143 421.621402,337.346696 398.35757,337.346696 Z" id="Flower" fill="#FFFFFF"></path>
            <path d="M398.370727,12 C488.910224,12 563.205123,81.5513946 570.741453,170.140213 L550.131408,176.912085 C545.679051,97.2364632 479.659722,34 398.870727,34 C317.972656,34 251.884161,97.4073325 247.592348,177.234891 L226,170.140213 C233.53633,81.5513946 307.831229,12 398.370727,12 Z" id="Fermata" fill="#D94949"></path>
            <path d="M12,567.19043 L12,447.608398 L69.6220703,539.499023 L126.21875,447.608398 L126.21875,567.19043 L110.168823,567.19043 L110.168823,502.855469 L69.3291016,569.390625 L28.0540848,502.855469 L28.0540848,567.19043 L12,567.19043 Z M229.299609,539.724609 L180.886523,539.724609 L168.288867,567.19043 L149.905078,567.19043 L205.862109,447 L259.841602,567.19043 L241.164844,567.19043 L229.299609,539.724609 Z M222.341602,523.68457 L205.569141,485.232422 L187.991016,523.68457 L222.341602,523.68457 Z M297.241211,518.337891 L260.327148,454.104492 L279.956055,454.104492 L305.810547,499.294922 L331.738281,454.104492 L351.367188,454.104492 L314.306641,518.337891 L314.306641,567.19043 L297.241211,567.19043 L297.241211,518.337891 Z M434.874023,470.144531 L395.469727,470.144531 L395.469727,497.317383 L433.482422,497.317383 L433.482422,513.357422 L395.469727,513.357422 L395.469727,567.19043 L378.404297,567.19043 L378.404297,454.104492 L434.874023,454.104492 L434.874023,470.144531 Z M485.714844,454.104492 L485.714844,567.19043 L468.649414,567.19043 L468.649414,454.104492 L485.714844,454.104492 Z M585.090039,470.144531 L539.753125,470.144531 L539.753125,497.317383 L583.77168,497.317383 L583.77168,513.357422 L539.753125,513.357422 L539.753125,551.150391 L585.090039,551.150391 L585.090039,567.19043 L522.687695,567.19043 L522.687695,454.104492 L585.090039,454.104492 L585.090039,470.144531 Z M636.867578,454.104492 L636.867578,551.150391 L670.119531,551.150391 L670.119531,567.19043 L619.802148,567.19043 L619.802148,454.104492 L636.867578,454.104492 Z M700.306055,567.19043 L700.306055,454.104492 L724.036523,454.104492 C735.413533,454.104492 744.397819,455.227528 750.989648,457.473633 C758.069762,459.670909 764.490596,463.406224 770.252344,468.679688 C781.922324,479.324272 787.757227,493.31339 787.757227,510.647461 C787.757227,528.03036 781.678186,542.09272 769.519922,552.834961 C763.416376,558.206082 757.019955,561.941396 750.330469,564.041016 C744.080437,566.140635 735.218221,567.19043 723.743555,567.19043 L700.306055,567.19043 Z M717.371484,551.150391 L725.061914,551.150391 C732.727968,551.150391 739.099975,550.344735 744.178125,548.733398 C749.256275,547.024406 753.846073,544.314472 757.947656,540.603516 C766.346136,532.937462 770.545312,522.95221 770.545312,510.647461 C770.545312,498.245055 766.394963,488.186562 758.094141,480.47168 C750.6234,473.58688 739.612768,470.144531 725.061914,470.144531 L717.371484,470.144531 L717.371484,551.150391 Z M117.52002,642.950195 L103.677246,651.15332 C101.089343,646.66111 98.6235469,643.731452 96.2797852,642.364258 C93.8383667,640.80175 90.6889841,640.020508 86.831543,640.020508 C82.0951912,640.020508 78.1645664,641.363268 75.0395508,644.048828 C71.9145352,646.68556 70.3520508,650.005839 70.3520508,654.009766 C70.3520508,659.527371 74.4535723,663.970686 82.6567383,667.339844 L93.9360352,671.954102 C103.115769,675.665058 109.829569,680.193821 114.077637,685.540527 C118.325705,690.887234 120.449707,697.442344 120.449707,705.206055 C120.449707,715.606497 116.982945,724.200161 110.049316,730.987305 C103.06686,737.823276 94.3999541,741.241211 84.0483398,741.241211 C74.2338376,741.241211 66.12845,738.335967 59.7319336,732.525391 C53.433074,726.714815 49.5024492,718.536186 47.9399414,707.989258 L65.2250977,704.180664 C66.0063516,710.821322 67.3735254,715.41112 69.3266602,717.950195 C72.8423027,722.833032 77.9692046,725.274414 84.7075195,725.274414 C90.0298118,725.274414 94.4487129,723.492205 97.9643555,719.927734 C101.479998,716.363263 103.237793,711.846707 103.237793,706.37793 C103.237793,704.180653 102.93262,702.166513 102.322266,700.335449 C101.711911,698.504385 100.759772,696.819832 99.4658203,695.281738 C98.1718685,693.743645 96.499522,692.303229 94.4487305,690.960449 C92.397939,689.617669 89.9565571,688.335944 87.1245117,687.115234 L76.2114258,682.574219 C60.7328328,676.031217 52.9936523,666.461 52.9936523,653.863281 C52.9936523,645.367145 56.2406902,638.262724 62.7348633,632.549805 C69.2290364,626.788057 77.3100103,623.907227 86.9780273,623.907227 C100.015202,623.907227 110.195764,630.254819 117.52002,642.950195 L117.52002,642.950195 Z M168.896191,626.104492 L168.896191,739.19043 L151.830762,739.19043 L151.830762,626.104492 L168.896191,626.104492 Z M208.669043,739.19043 L208.669043,618.414062 L291.139746,704.693359 L291.139746,626.104492 L308.205176,626.104492 L308.205176,746.075195 L225.734473,660.015625 L225.734473,739.19043 L208.669043,739.19043 Z M403.630957,680.303711 L450.359473,680.303711 L450.359473,684.039062 C450.359473,692.535199 449.358506,700.054655 447.356543,706.597656 C445.403408,712.652374 442.107543,718.31638 437.468848,723.589844 C426.970748,735.406309 413.61639,741.314453 397.405371,741.314453 C381.584979,741.314453 368.03531,735.60162 356.755957,724.175781 C345.476604,712.701115 339.837012,698.931721 339.837012,682.867188 C339.837012,666.460855 345.574259,652.544979 357.048926,641.119141 C368.523593,629.644474 382.488297,623.907227 398.943457,623.907227 C407.781392,623.907227 416.033262,625.713849 423.699316,629.327148 C431.023572,632.940448 438.225648,638.799764 445.305762,646.905273 L433.147559,658.550781 C423.870168,646.197204 412.566571,640.020508 399.236426,640.020508 C387.273475,640.020508 377.239396,644.146443 369.133887,652.398438 C361.028377,660.503947 356.975684,670.660095 356.975684,682.867188 C356.975684,695.464907 361.49224,705.84078 370.525488,713.995117 C378.972796,721.563514 388.127978,725.347656 397.991309,725.347656 C406.389788,725.347656 413.933658,722.515653 420.623145,716.851562 C427.312631,711.138643 431.047945,704.302774 431.829199,696.34375 L403.630957,696.34375 L403.630957,680.303711 Z M545.921777,642.144531 L500.584863,642.144531 L500.584863,669.317383 L544.603418,669.317383 L544.603418,685.357422 L500.584863,685.357422 L500.584863,723.150391 L545.921777,723.150391 L545.921777,739.19043 L483.519434,739.19043 L483.519434,626.104492 L545.921777,626.104492 L545.921777,642.144531 Z M655.649316,739.19043 L634.775293,739.19043 L602.475488,692.901367 L599.399316,692.901367 L599.399316,739.19043 L582.333887,739.19043 L582.333887,626.104492 L602.329004,626.104492 C617.270485,626.104492 628.061393,628.912081 634.702051,634.527344 C642.026306,640.777375 645.688379,649.029246 645.688379,659.283203 C645.688379,667.291056 643.39348,674.175752 638.803613,679.9375 C634.213747,685.699248 628.15912,689.385734 620.639551,690.99707 L655.649316,739.19043 Z M599.399316,678.033203 L604.819238,678.033203 C620.981428,678.033203 629.062402,671.856507 629.062402,659.50293 C629.062402,647.930606 621.201153,642.144531 605.478418,642.144531 L599.399316,642.144531 L599.399316,678.033203 Z M731.23916,651.15332 C728.651257,646.66111 726.185461,643.731452 723.841699,642.364258 C721.400281,640.80175 718.250898,640.020508 714.393457,640.020508 C709.657105,640.020508 705.72648,641.363268 702.601465,644.048828 C699.476449,646.68556 697.913965,650.005839 697.913965,654.009766 C697.913965,659.527371 702.015486,663.970686 710.218652,667.339844 L721.497949,671.954102 C730.677683,675.665058 737.391483,680.193821 741.639551,685.540527 C745.887619,690.887234 748.011621,697.442344 748.011621,705.206055 C748.011621,715.606497 744.544859,724.200161 737.61123,730.987305 C730.628774,737.823276 721.961868,741.241211 711.610254,741.241211 C701.795752,741.241211 693.690364,738.335967 687.293848,732.525391 C680.994988,726.714815 677.064363,718.536186 675.501855,707.989258 L692.787012,704.180664 C693.568266,710.821322 694.935439,715.41112 696.888574,717.950195 C700.404217,722.833032 705.531119,725.274414 712.269434,725.274414 C717.591726,725.274414 722.010627,723.492205 725.52627,719.927734 C729.041912,716.363263 730.799707,711.846707 730.799707,706.37793 C730.799707,704.180653 730.494534,702.166513 729.88418,700.335449 C729.273825,698.504385 728.321686,696.819832 727.027734,695.281738 C725.733783,693.743645 724.061436,692.303229 722.010645,690.960449 C719.959853,689.617669 717.518471,688.335944 714.686426,687.115234 L703.77334,682.574219 C688.294747,676.031217 680.555566,666.461 680.555566,653.863281 C680.555566,645.367145 683.802604,638.262724 690.296777,632.549805 C696.79095,626.788057 704.871924,623.907227 714.539941,623.907227 C727.577116,623.907227 737.757678,630.254819 745.081934,642.950195 L731.23916,651.15332 Z" id="MAYFIELD-SINGERS" fill="#FFFFFF"></path>
        </g>
    </g>
</svg>