<?xml version="1.0" encoding="UTF-8" standalone="no"?>
<!DOCTYPE svg PUBLIC "-//W3C//DTD SVG 1.1//EN" "http://www.w3.org/Graphics/SVG/1.1/DTD/svg11.dtd">
<svg width="100%" height="100%" viewBox="0 0 94 200" version="1.1" xmlns="http://www.w3.org/2000/svg" xmlns:xlink="http://www.w3.org/1999/xlink" xml:space="preserve" style="fill-rule:evenodd;clip-rule:evenodd;stroke-linejoin:round;stroke-miterlimit:1.41421;">
    <g id="Layer1">
        <g transform="matrix(0.889907,0,0,1.01744,0,0)">
            <rect x="0" y="0" width="224.743" height="196.573" style="fill:url(#_Linear1);"/>
        </g>
        <g transform="matrix(0.968938,0,0,0.968938,-55.3656,5.28217)">
            <path d="M81.684,47.467C88.442,47.467 93.355,52.998 93.929,59.712C94.292,63.96 94.647,73.84 92.004,77.378L71.363,77.378C68.631,74.644 68.874,64.596 69.439,59.712C70.22,52.954 74.926,47.467 81.684,47.467Z" style="fill:rgb(133,15,23);"/>
        </g>
        <g transform="matrix(0.887512,0,0,0.968938,-1.86462,5.28217)">
            <path d="M81.684,47.467C88.442,47.467 93.042,53.208 92.897,59.712L70.346,59.712C70.119,53.012 74.926,47.467 81.684,47.467Z" style="fill:rgb(133,15,23);"/>
        </g>
        <g transform="matrix(1,0,0,1,-57.9029,3.42743)">
            <path d="M128.48,49.729C134.004,49.729 138.489,53.911 138.489,59.561C138.489,68.293 133.099,73.393 128.48,73.393C123.861,73.393 118.471,68.249 118.471,59.561C118.471,53.911 122.956,49.729 128.48,49.729Z" style="fill:rgb(219,87,100);"/>
        </g>
        <g transform="matrix(1,0,0,1,-104.699,3.42743)">
            <path d="M128.48,49.729C134.004,49.729 138.489,53.911 138.489,59.561C138.489,68.293 133.099,73.393 128.48,73.393C123.861,73.393 118.471,68.249 118.471,59.561C118.471,53.911 122.956,49.729 128.48,49.729Z" style="fill:rgb(219,87,100);"/>
        </g>
        <g transform="matrix(1.05553,0,0,1,-65.0368,3.42743)">
            <path d="M146.113,83.272C146.113,78.79 142.666,75.152 138.42,75.152L118.54,75.152C114.294,75.152 110.847,78.79 110.847,83.272L115.217,136.217L119.006,139.212L122.216,196.573L134.744,196.573L137.954,139.212L141.744,136.217L146.113,83.272Z" style="fill:rgb(133,15,23);"/>
        </g>
        <g transform="matrix(1,0,0,1,-57.9029,3.42743)">
            <path d="M97.296,82.272C95.972,78.11 91.849,75.173 87.943,75.168L76.192,75.152C71.71,75.152 67.482,77.84 66.072,82.272C66.072,82.272 61.749,95.86 62.684,101.776C63.559,107.315 69.251,115.642 69.251,115.642C68.468,117.355 66.882,121.522 66.684,127.489C66.242,140.802 77.072,196.573 77.072,196.573L86.296,196.573C86.296,196.573 96.92,140.905 96.684,127.489C96.582,121.703 95.004,117.542 94.178,115.75C94.178,115.75 99.808,107.315 100.684,101.776C101.619,95.86 97.296,82.272 97.296,82.272ZM71.929,110.11C71.929,110.11 67.949,101.301 70.052,95.898C74.324,104.226 71.929,110.11 71.929,110.11ZM91.439,110.11C91.439,110.11 95.418,101.301 93.316,95.898C89.044,104.226 91.439,110.11 91.439,110.11Z" style="fill:rgb(133,15,23);"/>
        </g>
        <g transform="matrix(1,0,0,1,-57.9029,3.42743)">
            <path d="M91.352,55.933C89.804,53.979 84.635,54.284 81.684,56.458C78.733,58.631 74.897,62.091 70.726,62.338C70.735,59.457 71.034,49.143 81.684,48.823C88.283,48.914 91.533,53.542 91.352,55.933Z" style="fill:rgb(133,15,23);"/>
        </g>
        <g transform="matrix(0.919037,0,0,1,-47.5007,4.42743)">
            <path d="M121.314,85.907L121.314,77.83L128.48,80.83L135.646,77.83L135.646,85.907L128.48,82.907L121.314,85.907Z" style="fill:rgb(219,87,100);"/>
        </g>
        <g transform="matrix(1,0,0,1,-57.9029,3.42743)">
            <path d="M81.684,65.101C83.041,65.101 85.275,65.534 85.784,67.457C85.784,69.477 83.891,71.422 81.684,71.422C79.477,71.422 77.584,69.477 77.584,67.457C77.985,65.72 80.327,65.101 81.684,65.101Z" style="fill:rgb(133,15,23);"/>
        </g>
        <g transform="matrix(1,0,0,1,-11.1066,3.42743)">
            <path d="M81.684,65.101C83.041,65.101 85.275,65.534 85.784,67.457C85.784,69.477 83.891,71.422 81.684,71.422C79.477,71.422 77.584,69.477 77.584,67.457C77.985,65.72 80.327,65.101 81.684,65.101Z" style="fill:rgb(133,15,23);"/>
        </g>
        <g transform="matrix(1,0,0,1,-57.9029,3.42743)">
            <path d="M120.484,52.91C123.184,50.379 122.291,50.153 124.036,50.699C127.423,49.068 133.011,51.019 131.647,53.779C132.732,54.116 136.395,53.421 135.213,51.528C134.015,49.609 132.317,48.884 128.476,48.791C124.202,48.687 121.999,51.161 120.484,52.91Z" style="fill:rgb(133,15,23);"/>
        </g>
    </g>
    <defs>
        <linearGradient id="_Linear1" x1="0" y1="0" x2="1" y2="0" gradientUnits="userSpaceOnUse" gradientTransform="matrix(1.20366e-14,196.573,-196.573,1.20366e-14,0,0)"><stop offset="0%" style="stop-color:rgb(133,15,23);stop-opacity:0"/><stop offset="100%" style="stop-color:rgb(133,15,23);stop-opacity:0.25098"/></linearGradient>
    </defs>
</svg>
