<?xml version="1.0" encoding="UTF-8" standalone="no"?><!DOCTYPE svg PUBLIC "-//W3C//DTD SVG 1.1//EN" "http://www.w3.org/Graphics/SVG/1.1/DTD/svg11.dtd"><svg width="100%" height="100%" viewBox="0 0 100 150" version="1.1" xmlns="http://www.w3.org/2000/svg" xmlns:xlink="http://www.w3.org/1999/xlink" xml:space="preserve" style="fill-rule:evenodd;clip-rule:evenodd;stroke-linejoin:round;stroke-miterlimit:1.41421;"><g id="Layer1"><path d="M22.76,1.275c6.548,0 11.309,5.359 11.865,11.864c0.352,4.116 0.696,13.69 -1.865,17.118l-20,0c-2.647,-2.65 -2.412,-12.385 -1.865,-17.118c0.758,-6.548 5.317,-11.864 11.865,-11.864Z" style="fill:#850f17;"/><path d="M77.814,1.275c5.998,0 10.08,5.563 9.951,11.864l-20.014,0c-0.202,-6.492 4.065,-11.864 10.063,-11.864Z" style="fill:#850f17;"/><path d="M77.76,3.156c5.524,0 10.009,4.183 10.009,9.833c0,8.732 -5.39,13.832 -10.009,13.832c-4.619,0 -10.009,-5.145 -10.009,-13.832c0,-5.65 4.485,-9.833 10.009,-9.833Z" style="fill:#db5764;"/><path d="M22.76,3.156c5.524,0 10.009,4.183 10.009,9.833c0,8.732 -5.39,13.832 -10.009,13.832c-4.619,0 -10.009,-5.145 -10.009,-13.832c0,-5.65 4.485,-9.833 10.009,-9.833Z" style="fill:#db5764;"/><path d="M96.372,36.699c0,-4.481 -3.638,-8.12 -8.12,-8.12l-20.984,0c-4.481,0 -8.12,3.639 -8.12,8.12l4.612,52.946l4,2.994l3.388,57.361l13.224,0l3.388,-57.361l4,-2.994l4.612,-52.946Z" style="fill:#850f17;"/><path d="M38.372,35.699c-1.324,-4.162 -5.447,-7.098 -9.352,-7.103l-11.752,-0.017c-4.481,0 -8.71,2.689 -10.12,7.12c0,0 -4.323,13.588 -3.388,19.505c0.876,5.538 6.567,13.865 6.567,13.865c-0.782,1.713 -2.369,5.88 -2.567,11.848c-0.442,13.313 10.388,69.083 10.388,69.083l9.224,0c0,0 10.624,-55.668 10.388,-69.083c-0.101,-5.786 -1.68,-9.947 -2.505,-11.739c0,0 5.63,-8.436 6.505,-13.974c0.936,-5.917 -3.388,-19.505 -3.388,-19.505ZM13.005,63.538c0,0 -3.979,-8.81 -1.877,-14.212c4.272,8.328 1.877,14.212 1.877,14.212ZM32.515,63.538c0,0 3.98,-8.81 1.877,-14.212c-4.271,8.328 -1.877,14.212 -1.877,14.212Z" style="fill:#850f17;"/><path d="M32.429,9.36c-1.548,-1.953 -6.718,-1.648 -9.669,0.525c-2.951,2.174 -6.787,5.633 -10.958,5.881c0.009,-2.881 0.308,-13.195 10.958,-13.515c6.599,0.09 9.849,4.718 9.669,7.109Z" style="fill:#850f17;"/><path d="M71.174,40.335l0,-8.078l6.586,3l6.586,-3l0,8.078l-6.586,-3l-6.586,3Z" style="fill:#db5764;"/><path d="M22.76,18.528c1.357,0 3.591,0.434 4.1,2.356c0,2.021 -1.893,3.966 -4.1,3.966c-2.207,0 -4.1,-1.945 -4.1,-3.966c0.401,-1.737 2.743,-2.356 4.1,-2.356Z" style="fill:#850f17;"/><path d="M77.76,18.528c1.357,0 3.591,0.434 4.1,2.356c0,2.021 -1.893,3.966 -4.1,3.966c-2.207,0 -4.1,-1.945 -4.1,-3.966c0.401,-1.737 2.743,-2.356 4.1,-2.356Z" style="fill:#850f17;"/><path d="M69.764,6.337c2.7,-2.53 1.807,-2.756 3.552,-2.211c3.387,-1.63 8.975,0.321 7.611,3.081c1.085,0.337 4.748,-0.359 3.566,-2.252c-1.198,-1.919 -2.896,-2.643 -6.737,-2.737c-4.274,-0.104 -6.477,2.371 -7.992,4.119Z" style="fill:#850f17;"/></g></svg>