<?xml version="1.0" encoding="UTF-8" standalone="no"?>
<svg width="1200px" height="1200px" viewBox="0 0 1200 1200" version="1.1" xmlns="http://www.w3.org/2000/svg" xmlns:xlink="http://www.w3.org/1999/xlink">
	<g id="Page-1" stroke="none" stroke-width="1" fill="none" fill-rule="evenodd">
		<path d="M163,619.197087 C172.387192,852.464758 364.286147,1038.69177 599.64022,1038.69177 C834.994293,1038.69177 1026.89325,852.464758 1036.28044,619.197087 L818.14022,690.132513 L818.14022,436.063701 L599.648947,654.745166 L381.14022,436.063701 L381.14022,690.132513 L163,619.197087 Z M381.14022,916.179467 L381.14022,746.020876 L229.739891,696.228655 C252.42491,786.559054 307.160485,864.148772 381.14022,916.179467 Z M818.14022,917.940928 L818.14022,746.020876 L972.292687,695.323538 C949.491789,787.066754 893.647976,865.736368 818.14022,917.940928 Z M600.903226,985.596047 C541.142024,985.596047 484.58023,971.884977 434.186442,947.434204 L434.210004,566.78716 L599.64022,732.348154 L765.093977,566.729299 L765.093977,948.648359 C715.339046,972.338417 659.667936,985.596047 600.903226,985.596047 Z" id="Combined-Shape-Copy-8" fill="#850F17"></path>
		<path d="M600.936459,163 C829.640277,163 1017.31005,338.851493 1036.34691,562.836592 L984.285695,579.958374 C973.038989,378.509112 806.273402,218.624087 602.199465,218.624087 C397.850003,218.624087 230.909701,378.941133 220.068533,580.774545 L165.526012,562.836592 C184.562868,338.851493 372.232642,163 600.936459,163 Z" id="Path-Copy-7" fill="#323232"></path>
	</g>
</svg>