<?xml version="1.0" encoding="UTF-8" standalone="no"?>
<svg width="1042px" height="364px" viewBox="0 0 1042 364" version="1.1" xmlns="http://www.w3.org/2000/svg" xmlns:xlink="http://www.w3.org/1999/xlink">
    <g id="Page-1" stroke="none" stroke-width="1" fill="none" fill-rule="evenodd">
        <g id="Artboard" fill="#000000">
            <path d="M10,189.431471 C13.7162109,281.69166 89.6853626,355.346696 182.85757,355.346696 C276.029777,355.346696 351.998929,281.69166 355.71514,189.431471 L269.35757,217.487291 L269.35757,117 L182.861025,203.491167 L96.3575699,117 L96.3575699,217.487291 L10,189.431471 Z M96.3575699,306.891599 L96.3575699,239.591816 L36.4210552,219.898389 C45.4016233,255.625156 67.0703979,286.312829 96.3575699,306.891599 Z M269.35757,307.588278 L269.35757,239.591816 L330.383604,219.540404 C321.357161,255.825957 299.249657,286.940742 269.35757,307.588278 Z M183.35757,334.346696 C159.699245,334.346696 137.307505,328.923802 117.357562,319.253226 L117.36689,168.702711 L182.85757,234.184089 L248.35757,168.679826 L248.35757,319.733438 C228.660538,329.103143 206.621402,334.346696 183.35757,334.346696 Z" id="Combined-Shape-Copy-7"></path>
            <path d="M183.370727,9 C273.910224,9 348.205123,78.5513946 355.741453,167.140213 L335.131408,173.912085 C330.679051,94.2364632 264.659722,31 183.870727,31 C102.972656,31 36.8841607,94.4073325 32.5923484,174.234891 L11,167.140213 C18.5363299,78.5513946 92.8312289,9 183.370727,9 Z" id="Path-Copy-6"></path>
            <path d="M422.436785,209.596418 L422.436785,115.478843 L467.788494,187.801773 L512.333166,115.478843 L512.333166,209.596418 L499.700999,209.596418 L499.700999,158.961298 L467.557912,211.328092 L435.072224,158.961298 L435.072224,209.596418 L422.436785,209.596418 Z M593.46342,187.979321 L555.359683,187.979321 L545.444641,209.596418 L530.975597,209.596418 L575.01683,115 L617.501632,209.596418 L602.802006,209.596418 L593.46342,187.979321 Z M587.987089,175.354936 L574.786248,145.091 L560.951305,175.354936 L587.987089,175.354936 Z M646.937163,171.146808 L617.883784,120.591623 L633.332803,120.591623 L653.681698,156.158954 L674.088237,120.591623 L689.537256,120.591623 L660.368586,171.146808 L660.368586,209.596418 L646.937163,209.596418 L646.937163,171.146808 Z M755.261687,133.216007 L724.248358,133.216007 L724.248358,154.602523 L754.166421,154.602523 L754.166421,167.226907 L724.248358,167.226907 L724.248358,209.596418 L710.816935,209.596418 L710.816935,120.591623 L755.261687,120.591623 L755.261687,133.216007 Z M795.276184,120.591623 L795.276184,209.596418 L781.844761,209.596418 L781.844761,120.591623 L795.276184,120.591623 Z M873.489878,133.216007 L837.807256,133.216007 L837.807256,154.602523 L872.452258,154.602523 L872.452258,167.226907 L837.807256,167.226907 L837.807256,196.972034 L873.489878,196.972034 L873.489878,209.596418 L824.375833,209.596418 L824.375833,120.591623 L873.489878,120.591623 L873.489878,133.216007 Z M914.241623,120.591623 L914.241623,196.972034 L940.412723,196.972034 L940.412723,209.596418 L900.8102,209.596418 L900.8102,120.591623 L914.241623,120.591623 Z M964.171162,209.596418 L964.171162,120.591623 L982.848334,120.591623 C991.802661,120.591623 998.873783,121.475513 1004.06191,123.24332 C1009.63435,124.972696 1014.68789,127.912592 1019.2227,132.063096 C1028.40761,140.440964 1033,151.451162 1033,165.09402 C1033,178.77531 1028.21546,189.843153 1018.64625,198.297882 C1013.84242,202.525247 1008.80809,205.465143 1003.5431,207.117658 C998.623987,208.770173 991.64894,209.596418 982.617752,209.596418 L964.171162,209.596418 Z M977.602585,196.972034 L983.655372,196.972034 C989.688974,196.972034 994.704091,196.337938 998.700872,195.069729 C1002.69765,193.724658 1006.31007,191.591793 1009.53824,188.671068 C1016.1483,182.637466 1019.45329,174.778529 1019.45329,165.09402 C1019.45329,155.332651 1016.18673,147.416069 1009.65353,141.344036 C1003.77365,135.925323 995.107687,133.216007 983.655372,133.216007 L977.602585,133.216007 L977.602585,196.972034 Z M472.763314,261.875125 L461.868296,268.331431 C459.831475,264.795817 457.89076,262.490017 456.046092,261.41396 C454.124562,260.184181 451.645826,259.569301 448.60981,259.569301 C444.882043,259.569301 441.788427,260.626127 439.328869,262.739809 C436.869312,264.815061 435.639552,267.428301 435.639552,270.57961 C435.639552,274.922266 438.867672,278.419397 445.324011,281.071108 L454.201433,284.70278 C461.426383,287.623505 466.71051,291.187888 470.053971,295.396037 C473.397432,299.604187 475.069137,304.763416 475.069137,310.873879 C475.069137,319.059594 472.340606,325.823276 466.883463,331.165128 C461.387889,336.54541 454.566562,339.235511 446.419277,339.235511 C438.694729,339.235511 432.315347,336.948925 427.280941,332.375685 C422.323395,327.802446 419.229779,321.365419 418,313.064412 L431.60436,310.066841 C432.219249,315.293401 433.29529,318.905822 434.832513,320.904212 C437.599516,324.747271 441.634667,326.668772 446.938088,326.668772 C451.127022,326.668772 454.604938,325.266076 457.37194,322.460643 C460.138942,319.655211 461.522423,316.100435 461.522423,311.796209 C461.522423,310.066832 461.282235,308.481594 460.801853,307.040447 C460.321471,305.5993 459.572085,304.273465 458.553675,303.062901 C457.535264,301.852338 456.219036,300.718653 454.604952,299.661811 C452.990867,298.60497 451.069366,297.596182 448.840392,296.635418 L440.251199,293.061391 C428.068703,287.911692 421.977546,280.37941 421.977546,270.464318 C421.977546,263.777396 424.533142,258.18583 429.64441,253.689451 C434.755678,249.154641 441.115845,246.887271 448.725101,246.887271 C458.986068,246.887271 466.998725,251.883172 472.763314,261.875125 L472.763314,261.875125 Z M513.285091,248.46138 L513.285091,337.466176 L499.853668,337.466176 L499.853668,248.46138 L513.285091,248.46138 Z M543.92872,337.222527 L543.92872,242.164944 L608.837658,310.071453 L608.837658,248.217731 L622.269081,248.217731 L622.269081,342.641213 L557.360143,274.907641 L557.360143,337.222527 L543.92872,337.222527 Z M698.029225,291.274378 L734.807114,291.274378 L734.807114,294.214303 C734.807114,300.901225 734.019299,306.819447 732.443644,311.969146 C730.906421,316.734538 728.312395,321.19242 724.661489,325.342923 C716.398913,334.643125 705.888305,339.293157 693.12935,339.293157 C680.67784,339.293157 670.013511,334.796845 661.136046,325.804088 C652.25858,316.7729 647.819914,305.935637 647.819914,293.291973 C647.819914,280.379296 652.33544,269.426743 661.366628,260.433985 C670.397816,251.402797 681.388799,246.887271 694.339907,246.887271 C701.295844,246.887271 707.790516,248.309181 713.824118,251.153045 C719.588706,253.996908 725.257133,258.60851 730.829568,264.987987 L721.260399,274.153636 C713.958588,264.430698 705.06204,259.569301 694.57049,259.569301 C685.154996,259.569301 677.257629,262.816637 670.878151,269.311407 C664.498673,275.690884 661.308982,283.684326 661.308982,293.291973 C661.308982,303.207065 664.863759,311.373442 671.973417,317.79135 C678.621909,323.748091 685.827536,326.726417 693.590515,326.726417 C700.200576,326.726417 706.138012,324.497477 711.403003,320.039529 C716.667993,315.54315 719.607889,310.162948 720.222779,303.898762 L698.029225,303.898762 L698.029225,291.274378 Z M809.482752,261.085765 L773.80013,261.085765 L773.80013,282.47228 L808.445132,282.47228 L808.445132,295.096665 L773.80013,295.096665 L773.80013,324.841791 L809.482752,324.841791 L809.482752,337.466176 L760.368707,337.466176 L760.368707,248.46138 L809.482752,248.46138 L809.482752,261.085765 Z M895.990341,337.466176 L879.561347,337.466176 L854.139641,301.034161 L851.718526,301.034161 L851.718526,337.466176 L838.287102,337.466176 L838.287102,248.46138 L854.024349,248.46138 C865.784109,248.46138 874.277142,250.671105 879.503702,255.090623 C885.26829,260.009738 888.150541,266.50441 888.150541,274.574834 C888.150541,280.87745 886.34433,286.296081 882.731855,290.830891 C879.11938,295.3657 874.354058,298.267166 868.435748,299.535375 L895.990341,337.466176 Z M851.667029,289.300592 L855.932803,289.300592 C868.653327,289.300592 875.013494,284.439196 875.013494,274.716257 C875.013494,265.608208 868.826262,261.054252 856.451613,261.054252 L851.667029,261.054252 L851.667029,289.300592 Z M955.351467,268.331431 C953.314646,264.795817 951.373931,262.490017 949.529262,261.41396 C947.607733,260.184181 945.128997,259.569301 942.092981,259.569301 C938.365214,259.569301 935.271598,260.626127 932.81204,262.739809 C930.352483,264.815061 929.122722,267.428301 929.122722,270.57961 C929.122722,274.922266 932.350843,278.419397 938.807182,281.071108 L947.684603,284.70278 C954.909554,287.623505 960.19368,291.187888 963.537141,295.396037 C966.880603,299.604187 968.552308,304.763416 968.552308,310.873879 C968.552308,319.059594 965.823777,325.823276 960.366634,331.165128 C954.87106,336.54541 948.049733,339.235511 939.902448,339.235511 C932.1779,339.235511 925.798518,336.948925 920.764111,332.375685 C915.806566,327.802446 912.71295,321.365419 911.483171,313.064412 L925.087531,310.066841 C925.70242,315.293401 926.778461,318.905822 928.315684,320.904212 C931.082686,324.747271 935.117838,326.668772 940.421259,326.668772 C944.610193,326.668772 948.088109,325.266076 950.855111,322.460643 C953.622113,319.655211 955.005594,316.100435 955.005594,311.796209 C955.005594,310.066832 954.765406,308.481594 954.285024,307.040447 C953.804641,305.5993 953.055256,304.273465 952.036846,303.062901 C951.018435,301.852338 949.702207,300.718653 948.088123,299.661811 C946.474038,298.60497 944.552537,297.596182 942.323563,296.635418 L933.73437,293.061391 C921.551874,287.911692 915.460717,280.37941 915.460717,270.464318 C915.460717,263.777396 918.016313,258.18583 923.127581,253.689451 C928.238849,249.154641 934.599016,246.887271 942.208272,246.887271 C952.469239,246.887271 960.481896,251.883172 966.246484,261.875125 L955.351467,268.331431 Z" id="MAYFIELD-Copy-6"></path>
        </g>
    </g>
</svg>